<svg xmlns="http://www.w3.org/2000/svg" viewBox="0 0 412 269" data-sc-blueprint="1" data-lod="icon" data-extent-m="158.16 101.41 46.42" fill="none" stroke="currentColor" stroke-linecap="round" stroke-linejoin="round">
<g class="bp-view" data-view="top" data-projection='{"frame":"gltf-y-up-metres","m":[[0,0,-2.529161,261.372459],[2.529161,0,0,134.272084]],"box":[6,6,400,257]}'>
<path class="bp-hull" fill-rule="evenodd" stroke-width="2" d="M267 6l0 2 -27 -1 -2 4 -4 1 0 3 4 0 -4 1 0 2 -2 2 2 1 1 10 -1 3 1 2 -3 0 -1 1 7 2 3 2 23 1 4 2 -9 3 -1 2 0 7 -4 3 1 18 2 0 -1 2 -8 1 -12 14 -11 -2 -1 -3 -1 1 -3 -2 0 -2 1 0 -3 -2 -4 -9 -4 -1 -1 2 0 -3 2 -1 1 -3 0 -3 1 0 2 2 7 0 -2 -6 -8 -1 13 0 2 -7 3 -2 0 -8 -3 -4 -1 -6 -49 2 1 6 3 2 0 7 -3 2 0 6 19 1 0 2 -7 0 -2 6 7 1 1 -3 2 0 1 6 2 1 0 3 -1 -2 -6 2 -3 11 -3 3 -5 4 -6 -1 -7 4 -25 0 -1 -2 0 2 -63 0 -52 2 -20 17 0 9 0 5 -3 1 0 7 3 2 0 13 20 17 52 2 63 0 0 1 1 -1 25 -1 7 4 6 0 7 5 4 12 3 2 3 0 1 -3 1 4 -3 1 -1 7 -2 0 -1 -3 -7 0 2 7 7 0 0 2 -19 1 0 6 3 1 0 8 -3 2 -1 6 49 2 1 -6 3 -3 0 -9 -3 -3 -2 -7 -13 0 8 0 2 -7 -7 0 -1 3 -2 0 0 -4 -3 -4 0 -2 1 1 5 -1 3 -8 3 -2 -1 -2 3 -2 1 2 1 -4 11 -2 12 14 8 0 1 3 -2 1 -1 17 4 2 1 10 3 0 2 3 4 0 -4 2 -23 1 -3 2 -7 1 1 2 3 0 -1 4 2 1 0 2 -3 7 1 1 -2 1 2 1 0 3 3 0 -3 1 0 3 4 0 2 4 27 0 0 2 13 -2 8 1 1 -1 2 1 6 0 2 -2 1 2 3 -1 3 0 3 -3 4 -1 4 -4 1 -17 -3 0 -1 -4 -6 -4 -7 -1 0 2 -2 0 -3 -4 4 0 2 -2 0 -1 3 0 1 -2 0 -8 3 0 2 -2 -1 -18 -1 -1 0 -2 2 0 0 -16 1 0 0 16 6 0 18 -21 11 -3 5 0 1 -2 2 2 3 -1 0 -2 38 -10 1 -5 4 -3 2 -11 3 -7 -2 -4 -6 0 5 -2 -6 1 -1 -4 -37 -10 -1 -2 -3 -1 -1 2 -2 -2 -5 0 -11 -3 -17 -20 -7 -1 0 4 -1 1 0 -5 -2 0 0 -3 1 -1 1 -18 -2 -1 -3 0 0 -8 -1 -2 -3 0 -2 -3 -4 0 2 -1 1 -3 1 0 1 1 7 0 6 -5 1 -3 3 -1 -1 -16 -4 -5 -4 0 -3 -3 -6 -1 -1 2 -2 -2 -6 0 -2 1 -1 -1 -6 0 -2 1 -1 -1 -9 1zM280 67l0 10 -2 0 1 2 2 1 0 15 2 0 0 -15 2 -1 -1 -12zM292 67l0 9 -2 1 3 3 0 15 2 0 0 -11 1 1 5 -1 0 -4 2 -1 0 -2 -1 -7 -7 0 -1 -3zM271 67l-1 3 -7 0 -1 7 3 8 5 -1 0 11 1 -15 2 -1 -1 -12zM270 174l0 12 -6 1 -2 5 1 7 7 0 1 3 1 0 1 -13 -2 0zM293 174l0 15 -3 2 2 2 0 9 2 0 1 -3 7 0 1 -7 -2 -5 -7 -1 0 -12zM281 174l0 15 -2 0 -1 3 2 0 0 10 4 0 1 -13 -2 0 0 -15z"/>
<path class="bp-major" stroke-width="1.2" d="M23 155l113 -1M319 155l-13 5 -78 3M304 161l-75 4M307 256l1 0 0 -15 -35 0 -3 1 0 14 3 0M29 142l68 -1M384 120l-62 -10M33 120l60 0M33 149l60 0M40 127l57 0M339 129l56 0M42 121l55 0M42 148l55 0M275 109l9 6 22 0 -21 0M228 166l-53 4M226 167l-15 8 -35 -4M222 215l0 13 -3 6 -7 -1 -25 -6M62 167l24 1 0 -3 -24 -1M277 157l-2 1 -16 0 -9 -5 -21 -1M388 141l-50 0M222 54l0 -13 -2 -6 -8 0 -21 6M186 143l44 0M330 122l44 4M298 27l-25 1 -3 -2 0 -14 2 1M374 142l-44 4M289 57l2 0 0 -12 -17 0 0 12 1 0M381 140l-42 0M247 153l12 5 16 0 10 -5M10 153l1 0 0 -38 -1 1M225 133l-40 0M62 102l24 -1 0 2 -13 1M224 126l-38 0M301 115l-13 -1 -13 -5 -11 0M180 139l-14 0 0 -10 14 0M64 121l33 0 0 2M64 147l33 0M306 153l-2 2 -16 -1 -13 6M253 188l-5 -1 -16 -21M87 112l-4 0 -2 2 26 -1M259 110l-30 7M258 159l-30 -5M375 127l-31 0M262 163l-30 2M396 148l1 -3 -1 2 -26 2M242 255l9 2 21 -1M268 242l-29 -3 0 -1M348 105l28 9M259 110l-30 5M257 122l-29 0"/>
</g>
</svg>
